<svg xmlns="http://www.w3.org/2000/svg" viewBox="0 0 128 128"><path fill="#F7DF1E" d="M64 8c-30 0-52 22-52 52 0 24 14 44 36 54l-2-10c-18-6-30-22-30-44 0-24 20-44 48-44s48 20 48 44c0 22-12 38-30 44l-2 10c22-10 36-30 36-54 0-30-22-52-52-52z"/><path fill="#2CA02C" d="M64 32c-18 0-32 14-32 32 0 14 8 26 22 32l-1-8c-10-4-17-14-17-24 0-12 10-22 28-22s28 10 28 22c0 10-7 20-17 24l-1 8c14-6 22-18 22-32 0-18-14-32-32-32z"/><path fill="#F7DF1E" d="M64 52c-6 0-10 4-10 10v20c0 6 4 10 10 10s10-4 10-10V62c0-6-4-10-10-10zm0 8c1 0 2 1 2 2v18c0 1-1 2-2 2s-2-1-2-2V62c0-1 1-2 2-2z"/></svg>
